<mxfile host="app.diagrams.net" modified="2023-04-01T08:05:10.552Z" agent="Mozilla/5.0 (Windows NT 10.0; Win64; x64) AppleWebKit/537.36 (KHTML, like Gecko) Chrome/111.0.0.0 Safari/537.36" etag="XSLlFBJfCNoUxSmgI5xH" version="21.1.0" type="device">
  <diagram name="Pagina-1" id="hlPT_xZzWcK6odXoHloi">
    <mxGraphModel dx="875" dy="409" grid="1" gridSize="10" guides="1" tooltips="1" connect="1" arrows="1" fold="1" page="1" pageScale="1" pageWidth="827" pageHeight="1169" math="0" shadow="0">
      <root>
        <mxCell id="0" />
        <mxCell id="1" parent="0" />
        <mxCell id="f54PTyFtsJM_CDunILrZ-7" value="" style="ellipse;whiteSpace=wrap;html=1;fillColor=#CCCCCC;fontColor=#333333;strokeColor=#666666;" parent="1" vertex="1">
          <mxGeometry x="280" y="280" width="40" height="40" as="geometry" />
        </mxCell>
        <mxCell id="f54PTyFtsJM_CDunILrZ-1" value="" style="ellipse;whiteSpace=wrap;html=1;" parent="1" vertex="1">
          <mxGeometry x="80" y="250" width="40" height="40" as="geometry" />
        </mxCell>
        <mxCell id="f54PTyFtsJM_CDunILrZ-2" value="" style="ellipse;whiteSpace=wrap;html=1;" parent="1" vertex="1">
          <mxGeometry x="80" y="300" width="40" height="40" as="geometry" />
        </mxCell>
        <mxCell id="f54PTyFtsJM_CDunILrZ-3" value="" style="ellipse;whiteSpace=wrap;html=1;" parent="1" vertex="1">
          <mxGeometry x="80" y="350" width="40" height="40" as="geometry" />
        </mxCell>
        <mxCell id="f54PTyFtsJM_CDunILrZ-5" value="" style="ellipse;whiteSpace=wrap;html=1;fillColor=#CCCCCC;fontColor=#333333;strokeColor=#666666;" parent="1" vertex="1">
          <mxGeometry x="280" y="160" width="40" height="40" as="geometry" />
        </mxCell>
        <mxCell id="f54PTyFtsJM_CDunILrZ-6" value="" style="ellipse;whiteSpace=wrap;html=1;" parent="1" vertex="1">
          <mxGeometry x="80" y="200" width="40" height="40" as="geometry" />
        </mxCell>
        <mxCell id="f54PTyFtsJM_CDunILrZ-10" value="" style="endArrow=classicThin;html=1;rounded=0;exitX=1;exitY=0.5;exitDx=0;exitDy=0;endFill=1;entryX=0.043;entryY=0.328;entryDx=0;entryDy=0;entryPerimeter=0;" parent="1" source="f54PTyFtsJM_CDunILrZ-6" target="f54PTyFtsJM_CDunILrZ-7" edge="1">
          <mxGeometry width="50" height="50" relative="1" as="geometry">
            <mxPoint x="390" y="440" as="sourcePoint" />
            <mxPoint x="280" y="280" as="targetPoint" />
          </mxGeometry>
        </mxCell>
        <mxCell id="f54PTyFtsJM_CDunILrZ-11" value="" style="endArrow=classicThin;html=1;rounded=0;exitX=1;exitY=0.5;exitDx=0;exitDy=0;endFill=1;entryX=-0.003;entryY=0.448;entryDx=0;entryDy=0;entryPerimeter=0;" parent="1" source="f54PTyFtsJM_CDunILrZ-1" target="f54PTyFtsJM_CDunILrZ-7" edge="1">
          <mxGeometry width="50" height="50" relative="1" as="geometry">
            <mxPoint x="170" y="230" as="sourcePoint" />
            <mxPoint x="280" y="290" as="targetPoint" />
          </mxGeometry>
        </mxCell>
        <mxCell id="f54PTyFtsJM_CDunILrZ-12" value="" style="endArrow=classicThin;html=1;rounded=0;exitX=1;exitY=0.5;exitDx=0;exitDy=0;endFill=1;entryX=-0.003;entryY=0.562;entryDx=0;entryDy=0;entryPerimeter=0;" parent="1" source="f54PTyFtsJM_CDunILrZ-2" target="f54PTyFtsJM_CDunILrZ-7" edge="1">
          <mxGeometry width="50" height="50" relative="1" as="geometry">
            <mxPoint x="180" y="240" as="sourcePoint" />
            <mxPoint x="290" y="300" as="targetPoint" />
          </mxGeometry>
        </mxCell>
        <mxCell id="f54PTyFtsJM_CDunILrZ-13" value="" style="endArrow=classicThin;html=1;rounded=0;exitX=1;exitY=0.5;exitDx=0;exitDy=0;endFill=1;entryX=0.043;entryY=0.675;entryDx=0;entryDy=0;entryPerimeter=0;" parent="1" source="f54PTyFtsJM_CDunILrZ-3" target="f54PTyFtsJM_CDunILrZ-7" edge="1">
          <mxGeometry width="50" height="50" relative="1" as="geometry">
            <mxPoint x="190" y="250" as="sourcePoint" />
            <mxPoint x="310" y="320" as="targetPoint" />
          </mxGeometry>
        </mxCell>
        <mxCell id="f54PTyFtsJM_CDunILrZ-15" value="" style="endArrow=classicThin;html=1;rounded=0;exitX=1;exitY=0.5;exitDx=0;exitDy=0;endFill=1;dashed=1;" parent="1" source="f54PTyFtsJM_CDunILrZ-6" target="f54PTyFtsJM_CDunILrZ-5" edge="1">
          <mxGeometry width="50" height="50" relative="1" as="geometry">
            <mxPoint x="170" y="230" as="sourcePoint" />
            <mxPoint x="280" y="190" as="targetPoint" />
          </mxGeometry>
        </mxCell>
        <mxCell id="f54PTyFtsJM_CDunILrZ-16" value="" style="endArrow=classicThin;html=1;rounded=0;exitX=1;exitY=0.5;exitDx=0;exitDy=0;endFill=1;dashed=1;" parent="1" source="f54PTyFtsJM_CDunILrZ-1" target="f54PTyFtsJM_CDunILrZ-5" edge="1">
          <mxGeometry width="50" height="50" relative="1" as="geometry">
            <mxPoint x="170" y="230" as="sourcePoint" />
            <mxPoint x="280" y="190" as="targetPoint" />
          </mxGeometry>
        </mxCell>
        <mxCell id="f54PTyFtsJM_CDunILrZ-17" value="" style="endArrow=classicThin;html=1;rounded=0;endFill=1;dashed=1;exitX=1;exitY=0.5;exitDx=0;exitDy=0;" parent="1" target="f54PTyFtsJM_CDunILrZ-5" edge="1" source="f54PTyFtsJM_CDunILrZ-2">
          <mxGeometry width="50" height="50" relative="1" as="geometry">
            <mxPoint x="160" y="320" as="sourcePoint" />
            <mxPoint x="300" y="200" as="targetPoint" />
          </mxGeometry>
        </mxCell>
        <mxCell id="f54PTyFtsJM_CDunILrZ-18" value="" style="endArrow=classicThin;html=1;rounded=0;entryX=0.233;entryY=0.908;entryDx=0;entryDy=0;endFill=1;dashed=1;entryPerimeter=0;" parent="1" target="f54PTyFtsJM_CDunILrZ-5" edge="1">
          <mxGeometry width="50" height="50" relative="1" as="geometry">
            <mxPoint x="120" y="370" as="sourcePoint" />
            <mxPoint x="310" y="210" as="targetPoint" />
          </mxGeometry>
        </mxCell>
        <mxCell id="f54PTyFtsJM_CDunILrZ-20" value="" style="ellipse;whiteSpace=wrap;html=1;" parent="1" vertex="1">
          <mxGeometry x="480" y="250" width="40" height="40" as="geometry" />
        </mxCell>
        <mxCell id="f54PTyFtsJM_CDunILrZ-21" value="" style="ellipse;whiteSpace=wrap;html=1;" parent="1" vertex="1">
          <mxGeometry x="480" y="300" width="40" height="40" as="geometry" />
        </mxCell>
        <mxCell id="f54PTyFtsJM_CDunILrZ-22" value="" style="ellipse;whiteSpace=wrap;html=1;" parent="1" vertex="1">
          <mxGeometry x="480" y="350" width="40" height="40" as="geometry" />
        </mxCell>
        <mxCell id="f54PTyFtsJM_CDunILrZ-24" value="" style="ellipse;whiteSpace=wrap;html=1;" parent="1" vertex="1">
          <mxGeometry x="480" y="200" width="40" height="40" as="geometry" />
        </mxCell>
        <mxCell id="f54PTyFtsJM_CDunILrZ-25" value="" style="endArrow=classicThin;html=1;rounded=0;endFill=1;entryX=0;entryY=0.5;entryDx=0;entryDy=0;" parent="1" source="f54PTyFtsJM_CDunILrZ-7" target="f54PTyFtsJM_CDunILrZ-24" edge="1">
          <mxGeometry width="50" height="50" relative="1" as="geometry">
            <mxPoint x="320" y="290" as="sourcePoint" />
            <mxPoint x="750" y="440" as="targetPoint" />
          </mxGeometry>
        </mxCell>
        <mxCell id="f54PTyFtsJM_CDunILrZ-26" value="" style="endArrow=classicThin;html=1;rounded=0;endFill=1;entryX=0;entryY=0.5;entryDx=0;entryDy=0;" parent="1" source="f54PTyFtsJM_CDunILrZ-7" target="f54PTyFtsJM_CDunILrZ-20" edge="1">
          <mxGeometry width="50" height="50" relative="1" as="geometry">
            <mxPoint x="320" y="300" as="sourcePoint" />
            <mxPoint x="530" y="230" as="targetPoint" />
          </mxGeometry>
        </mxCell>
        <mxCell id="f54PTyFtsJM_CDunILrZ-27" value="" style="endArrow=classicThin;html=1;rounded=0;endFill=1;entryX=0;entryY=0.5;entryDx=0;entryDy=0;exitX=0.961;exitY=0.611;exitDx=0;exitDy=0;exitPerimeter=0;" parent="1" source="f54PTyFtsJM_CDunILrZ-7" target="f54PTyFtsJM_CDunILrZ-21" edge="1">
          <mxGeometry width="50" height="50" relative="1" as="geometry">
            <mxPoint x="320" y="300" as="sourcePoint" />
            <mxPoint x="540" y="240" as="targetPoint" />
          </mxGeometry>
        </mxCell>
        <mxCell id="f54PTyFtsJM_CDunILrZ-28" value="" style="endArrow=classicThin;html=1;rounded=0;endFill=1;entryX=0;entryY=0.5;entryDx=0;entryDy=0;" parent="1" source="f54PTyFtsJM_CDunILrZ-7" target="f54PTyFtsJM_CDunILrZ-22" edge="1">
          <mxGeometry width="50" height="50" relative="1" as="geometry">
            <mxPoint x="320" y="310" as="sourcePoint" />
            <mxPoint x="550" y="250" as="targetPoint" />
          </mxGeometry>
        </mxCell>
      </root>
    </mxGraphModel>
  </diagram>
</mxfile>
